<mxfile host="app.diagrams.net" agent="Mozilla/5.0 (Windows NT 10.0; Win64; x64) AppleWebKit/537.36 (KHTML, like Gecko) Chrome/136.0.0.0 Safari/537.36 Edg/136.0.0.0" version="26.3.0">
  <diagram name="第 1 页" id="VQducZv8ms1x_GyjrhsL">
    <mxGraphModel dx="407" dy="726" grid="0" gridSize="10" guides="1" tooltips="1" connect="1" arrows="1" fold="1" page="0" pageScale="1" pageWidth="827" pageHeight="1169" math="0" shadow="0">
      <root>
        <mxCell id="0" />
        <mxCell id="1" parent="0" />
        <mxCell id="F4IvmFrcxUjV33_Lwis3-4" value="" style="edgeStyle=none;curved=1;rounded=0;orthogonalLoop=1;jettySize=auto;html=1;fontSize=12;startSize=8;endSize=8;" edge="1" parent="1" source="F4IvmFrcxUjV33_Lwis3-1" target="F4IvmFrcxUjV33_Lwis3-5">
          <mxGeometry relative="1" as="geometry">
            <mxPoint x="448" y="14" as="targetPoint" />
          </mxGeometry>
        </mxCell>
        <mxCell id="F4IvmFrcxUjV33_Lwis3-1" value="HMI開始" style="rounded=1;whiteSpace=wrap;html=1;" vertex="1" parent="1">
          <mxGeometry x="401" y="-87" width="93" height="45" as="geometry" />
        </mxCell>
        <mxCell id="F4IvmFrcxUjV33_Lwis3-5" value="InstallMessageHandler" style="rounded=0;whiteSpace=wrap;html=1;" vertex="1" parent="1">
          <mxGeometry x="375" y="-17" width="141.5" height="45" as="geometry" />
        </mxCell>
        <mxCell id="F4IvmFrcxUjV33_Lwis3-11" value="" style="edgeStyle=none;curved=1;rounded=0;orthogonalLoop=1;jettySize=auto;html=1;fontSize=12;startSize=8;endSize=8;" edge="1" target="F4IvmFrcxUjV33_Lwis3-12" parent="1">
          <mxGeometry relative="1" as="geometry">
            <mxPoint x="449" y="31" as="sourcePoint" />
            <mxPoint x="450" y="87" as="targetPoint" />
          </mxGeometry>
        </mxCell>
        <mxCell id="F4IvmFrcxUjV33_Lwis3-12" value="重開模式 (iBootLevel)" style="rounded=0;whiteSpace=wrap;html=1;" vertex="1" parent="1">
          <mxGeometry x="377" y="56" width="141.5" height="45" as="geometry" />
        </mxCell>
        <mxCell id="F4IvmFrcxUjV33_Lwis3-13" value="" style="edgeStyle=none;curved=1;rounded=0;orthogonalLoop=1;jettySize=auto;html=1;fontSize=12;startSize=8;endSize=8;" edge="1" target="F4IvmFrcxUjV33_Lwis3-14" parent="1">
          <mxGeometry relative="1" as="geometry">
            <mxPoint x="448" y="101" as="sourcePoint" />
            <mxPoint x="449" y="157" as="targetPoint" />
          </mxGeometry>
        </mxCell>
        <mxCell id="F4IvmFrcxUjV33_Lwis3-17" style="edgeStyle=none;curved=1;rounded=0;orthogonalLoop=1;jettySize=auto;html=1;exitX=1;exitY=0.5;exitDx=0;exitDy=0;fontSize=12;startSize=8;endSize=8;" edge="1" parent="1" source="F4IvmFrcxUjV33_Lwis3-14">
          <mxGeometry relative="1" as="geometry">
            <mxPoint x="561" y="147.50634517766503" as="targetPoint" />
          </mxGeometry>
        </mxCell>
        <mxCell id="F4IvmFrcxUjV33_Lwis3-14" value="輸出字串 程式啟動&lt;div&gt;PRINT_SYSTEM_LOG&lt;/div&gt;" style="rounded=0;whiteSpace=wrap;html=1;" vertex="1" parent="1">
          <mxGeometry x="376" y="126" width="141.5" height="45" as="geometry" />
        </mxCell>
        <mxCell id="F4IvmFrcxUjV33_Lwis3-44" style="edgeStyle=none;curved=1;rounded=0;orthogonalLoop=1;jettySize=auto;html=1;exitX=1;exitY=0;exitDx=0;exitDy=0;fontSize=12;startSize=8;endSize=8;" edge="1" parent="1" source="F4IvmFrcxUjV33_Lwis3-20">
          <mxGeometry relative="1" as="geometry">
            <mxPoint x="772" y="48" as="targetPoint" />
          </mxGeometry>
        </mxCell>
        <mxCell id="F4IvmFrcxUjV33_Lwis3-45" style="edgeStyle=none;curved=1;rounded=0;orthogonalLoop=1;jettySize=auto;html=1;entryX=0;entryY=1;entryDx=0;entryDy=0;fontSize=12;startSize=8;endSize=8;" edge="1" parent="1" source="F4IvmFrcxUjV33_Lwis3-20" target="F4IvmFrcxUjV33_Lwis3-22">
          <mxGeometry relative="1" as="geometry" />
        </mxCell>
        <mxCell id="F4IvmFrcxUjV33_Lwis3-47" style="edgeStyle=none;curved=1;rounded=0;orthogonalLoop=1;jettySize=auto;html=1;fontSize=12;startSize=8;endSize=8;" edge="1" parent="1" source="F4IvmFrcxUjV33_Lwis3-20">
          <mxGeometry relative="1" as="geometry">
            <mxPoint x="768.8571428571429" y="252" as="targetPoint" />
          </mxGeometry>
        </mxCell>
        <mxCell id="F4IvmFrcxUjV33_Lwis3-20" value="根據情況還會跑其他模式" style="rhombus;whiteSpace=wrap;html=1;" vertex="1" parent="1">
          <mxGeometry x="563" y="106" width="152" height="80" as="geometry" />
        </mxCell>
        <mxCell id="F4IvmFrcxUjV33_Lwis3-22" value="NO_BOOT_MODE&lt;div&gt;不跑開機流程&lt;/div&gt;" style="rounded=0;whiteSpace=wrap;html=1;" vertex="1" parent="1">
          <mxGeometry x="773" y="76" width="141.5" height="45" as="geometry" />
        </mxCell>
        <mxCell id="F4IvmFrcxUjV33_Lwis3-31" style="edgeStyle=none;curved=1;rounded=0;orthogonalLoop=1;jettySize=auto;html=1;exitX=0.5;exitY=1;exitDx=0;exitDy=0;fontSize=12;startSize=8;endSize=8;" edge="1" parent="1" source="F4IvmFrcxUjV33_Lwis3-25">
          <mxGeometry relative="1" as="geometry">
            <mxPoint x="841" y="199.5" as="targetPoint" />
          </mxGeometry>
        </mxCell>
        <mxCell id="F4IvmFrcxUjV33_Lwis3-25" value="NO_FCB_MODE&lt;div&gt;不跑FCB模式&lt;/div&gt;" style="rounded=0;whiteSpace=wrap;html=1;" vertex="1" parent="1">
          <mxGeometry x="770" y="151" width="141.5" height="45" as="geometry" />
        </mxCell>
        <mxCell id="F4IvmFrcxUjV33_Lwis3-26" value="KEY_DEBUG_MODE&lt;div&gt;鍵盤特殊測試功能&lt;/div&gt;" style="rounded=0;whiteSpace=wrap;html=1;" vertex="1" parent="1">
          <mxGeometry x="770" y="233" width="141.5" height="45" as="geometry" />
        </mxCell>
        <mxCell id="F4IvmFrcxUjV33_Lwis3-27" value="CTCB_SIT_MODE&lt;div&gt;SIT驗證&lt;/div&gt;" style="rounded=0;whiteSpace=wrap;html=1;" vertex="1" parent="1">
          <mxGeometry x="773" y="1" width="141.5" height="45" as="geometry" />
        </mxCell>
        <mxCell id="F4IvmFrcxUjV33_Lwis3-32" value="" style="edgeStyle=none;curved=1;rounded=0;orthogonalLoop=1;jettySize=auto;html=1;fontSize=12;startSize=8;endSize=8;" edge="1" target="F4IvmFrcxUjV33_Lwis3-33" parent="1">
          <mxGeometry relative="1" as="geometry">
            <mxPoint x="449" y="171" as="sourcePoint" />
            <mxPoint x="450" y="227" as="targetPoint" />
          </mxGeometry>
        </mxCell>
        <mxCell id="F4IvmFrcxUjV33_Lwis3-33" value="呼叫EDC_DirPath執行backuplog存儲路徑設定" style="rounded=0;whiteSpace=wrap;html=1;" vertex="1" parent="1">
          <mxGeometry x="377" y="196" width="141.5" height="45" as="geometry" />
        </mxCell>
        <mxCell id="F4IvmFrcxUjV33_Lwis3-40" value="" style="edgeStyle=none;curved=1;rounded=0;orthogonalLoop=1;jettySize=auto;html=1;fontSize=12;startSize=8;endSize=8;" edge="1" target="F4IvmFrcxUjV33_Lwis3-41" parent="1">
          <mxGeometry relative="1" as="geometry">
            <mxPoint x="449" y="243" as="sourcePoint" />
            <mxPoint x="450" y="299" as="targetPoint" />
          </mxGeometry>
        </mxCell>
        <mxCell id="F4IvmFrcxUjV33_Lwis3-41" value="CursorOv&lt;span style=&quot;background-color: transparent; color: light-dark(rgb(0, 0, 0), rgb(255, 255, 255));&quot;&gt;erride&lt;/span&gt;" style="rounded=0;whiteSpace=wrap;html=1;" vertex="1" parent="1">
          <mxGeometry x="377" y="268" width="141.5" height="45" as="geometry" />
        </mxCell>
        <mxCell id="F4IvmFrcxUjV33_Lwis3-42" value="" style="edgeStyle=none;curved=1;rounded=0;orthogonalLoop=1;jettySize=auto;html=1;fontSize=12;startSize=8;endSize=8;" edge="1" target="F4IvmFrcxUjV33_Lwis3-43" parent="1">
          <mxGeometry relative="1" as="geometry">
            <mxPoint x="448" y="316" as="sourcePoint" />
            <mxPoint x="449" y="372" as="targetPoint" />
          </mxGeometry>
        </mxCell>
        <mxCell id="F4IvmFrcxUjV33_Lwis3-43" value="InstallMessageHandler" style="rounded=0;whiteSpace=wrap;html=1;" vertex="1" parent="1">
          <mxGeometry x="376" y="341" width="141.5" height="45" as="geometry" />
        </mxCell>
        <mxCell id="F4IvmFrcxUjV33_Lwis3-46" style="edgeStyle=none;curved=1;rounded=0;orthogonalLoop=1;jettySize=auto;html=1;entryX=0.014;entryY=0.606;entryDx=0;entryDy=0;entryPerimeter=0;fontSize=12;startSize=8;endSize=8;" edge="1" parent="1" source="F4IvmFrcxUjV33_Lwis3-20" target="F4IvmFrcxUjV33_Lwis3-25">
          <mxGeometry relative="1" as="geometry" />
        </mxCell>
      </root>
    </mxGraphModel>
  </diagram>
</mxfile>
